<?xml version="1.0" encoding="UTF-8" standalone="no"?>
<!-- Created with Inkscape (http://www.inkscape.org/) -->

<svg
   width="68.942856mm"
   height="68.942871mm"
   viewBox="0 0 68.942856 68.942871"
   version="1.1"
   id="svg5"
   xml:space="preserve"
   inkscape:export-filename="freemason-logo.svg"
   inkscape:export-xdpi="96"
   inkscape:export-ydpi="96"
   sodipodi:docname="freemason-logo-dark.svg"
   inkscape:version="1.2.2 (732a01da63, 2022-12-09)"
   xmlns:inkscape="http://www.inkscape.org/namespaces/inkscape"
   xmlns:sodipodi="http://sodipodi.sourceforge.net/DTD/sodipodi-0.dtd"
   xmlns="http://www.w3.org/2000/svg"
   xmlns:svg="http://www.w3.org/2000/svg"><sodipodi:namedview
     id="namedview7"
     pagecolor="#ffffff"
     bordercolor="#000000"
     borderopacity="0.25"
     inkscape:showpageshadow="2"
     inkscape:pageopacity="0.0"
     inkscape:pagecheckerboard="0"
     inkscape:deskcolor="#d1d1d1"
     inkscape:document-units="mm"
     showgrid="false"
     inkscape:zoom="4.1776836"
     inkscape:cx="74.921902"
     inkscape:cy="115.37494"
     inkscape:window-width="3440"
     inkscape:window-height="1369"
     inkscape:window-x="-8"
     inkscape:window-y="-8"
     inkscape:window-maximized="1"
     inkscape:current-layer="layer1" /><defs
     id="defs2" /><g
     inkscape:label="Capa 1"
     inkscape:groupmode="layer"
     id="layer1"
     transform="translate(-32.523743,-85.546659)"><path
       style="fill:#131318;fill-opacity:1;stroke-width:0.0362857"
       d="m 65.9696,153.51031 c -7.003268,-0.28228 -13.587237,-2.77144 -18.995572,-7.18154 -0.854685,-0.69694 -1.398039,-1.19312 -2.360565,-2.15565 -0.962526,-0.96253 -1.458711,-1.50588 -2.155645,-2.36056 -3.875807,-4.7531 -6.274281,-10.41612 -6.984839,-16.49186 -0.154269,-1.3191 -0.196173,-2.11358 -0.196173,-3.71929 0,-1.60571 0.0419,-2.40019 0.196173,-3.71928 0.758618,-6.48668 3.397274,-12.40466 7.765806,-17.41715 0.530014,-0.608146 2.201815,-2.279947 2.809957,-2.809961 2.889652,-2.518415 5.912136,-4.368815 9.398,-5.753564 2.980707,-1.184075 6.016977,-1.87619 9.416144,-2.1464 1.086434,-0.08636 3.558137,-0.08636 4.644571,0 4.391374,0.349083 8.298508,1.431048 12.082981,3.346023 2.457995,1.243765 4.581337,2.680305 6.731164,4.553941 0.608141,0.530014 2.279944,2.201815 2.809955,2.809961 2.518417,2.88965 4.368818,5.91214 5.753565,9.398 1.184075,2.98071 1.876193,6.01698 2.146402,9.41615 0.08636,1.08643 0.08636,3.55813 0,4.64457 -0.349287,4.39392 -1.429937,8.29631 -3.346022,12.08298 -1.243766,2.45799 -2.680307,4.58134 -4.553945,6.73116 -0.530011,0.60814 -2.201814,2.27995 -2.809955,2.80996 -2.149827,1.87364 -4.273169,3.31018 -6.731164,4.55394 -3.772739,1.90904 -7.755096,3.01337 -12.046695,3.34063 -0.711575,0.0543 -2.887407,0.0956 -3.574143,0.0679 z m 2.830286,-4.4414 c 5.426014,-0.35845 10.487,-2.22316 14.768287,-5.44136 6.016277,-4.52237 9.890329,-11.17531 10.82924,-18.59714 0.155844,-1.2319 0.196074,-1.93548 0.196074,-3.429 0,-1.49352 -0.04023,-2.19709 -0.196074,-3.429 -0.536869,-4.24379 -2.04011,-8.27997 -4.397237,-11.80653 -4.353147,-6.512865 -11.266454,-10.892661 -18.932433,-11.994298 -1.586437,-0.227978 -2.625571,-0.289856 -4.426857,-0.263608 -1.398101,0.02037 -1.983643,0.05934 -3.120572,0.207669 -10.192368,1.329745 -18.82837,8.288747 -22.331916,17.995327 -0.810285,2.24489 -1.299692,4.51197 -1.531678,7.09516 -0.08698,0.96856 -0.08733,3.38227 -6.2e-4,4.37243 0.341298,3.8976 1.371821,7.42777 3.126892,10.71152 3.191292,5.97092 8.420049,10.55362 14.732037,12.91175 2.316635,0.86548 4.988304,1.45379 7.402286,1.63001 0.299357,0.0219 0.6096,0.0447 0.689429,0.0508 0.370875,0.0284 2.70754,0.0183 3.193143,-0.0138 z m -8.391072,-14.23612 c -3.597276,-3.623 -6.540501,-6.60437 -6.540501,-6.62528 0,-0.0578 0.658642,-1.05886 0.688729,-1.04678 0.01445,0.006 2.831621,2.85171 6.260378,6.32425 3.428758,3.47255 6.247168,6.31894 6.263134,6.32531 0.01597,0.006 2.854324,-2.80206 6.307465,-6.24097 3.453141,-3.43892 6.292731,-6.25734 6.310199,-6.26316 0.01747,-0.006 0.140473,0.1632 0.27334,0.37562 l 0.241579,0.38621 -4.019339,4.04729 c -2.210639,2.226 -5.194998,5.23022 -6.631912,6.67603 l -2.612572,2.62875 z m 0.553357,-1.91524 c -3.3528,-3.39555 -6.101496,-6.18793 -6.108213,-6.20528 -0.01025,-0.0265 2.264676,-3.54083 2.354558,-3.63735 0.01685,-0.0181 2.214833,2.14134 4.986029,4.89857 2.725747,2.71201 4.969397,4.93554 4.985889,4.94118 0.01649,0.006 2.245885,-2.21279 4.954207,-4.92985 2.708326,-2.71705 4.929818,-4.93419 4.93665,-4.92697 0.0484,0.0511 2.342167,3.73753 2.342167,3.76418 0,0.0441 -12.255963,12.24811 -12.312309,12.2601 -0.02364,0.005 -2.786178,-2.76903 -6.138978,-6.16458 z m 24.945172,3.27979 c -16.312259,-26.03678 -20.266331,-32.3748 -20.594362,-33.01093 -0.388424,-0.75324 -0.531145,-1.27744 -0.53348,-1.95943 -0.0017,-0.48472 0.05367,-0.76032 0.227498,-1.13319 0.501468,-1.075673 1.758802,-1.737547 2.892246,-1.52251 0.56391,0.106986 0.98267,0.325163 1.433304,0.746766 0.447022,0.418224 0.681225,0.805504 1.222328,2.021294 0.901406,2.02534 2.963041,6.57173 6.826955,15.05507 4.149943,9.11133 10.25778,22.49814 10.310028,22.59693 0.146017,0.2761 -0.225607,-0.30574 -1.784517,-2.794 z m -39.647486,2.53093 c 0.06918,-0.14968 1.304812,-2.71326 2.745852,-5.69686 6.799473,-14.07793 13.358001,-27.73553 14.825874,-30.87368 0.337697,-0.72196 0.397831,-0.82928 0.406639,-0.72572 0.02413,0.28374 0.126526,0.76325 0.23516,1.10126 0.183466,0.57083 0.481662,1.11564 1.564437,2.85823 0.555175,0.89349 1.000957,1.64655 0.990625,1.67348 -0.04675,0.12182 -6.465737,9.95625 -14.793206,22.66443 -5.176083,7.89899 -6.029589,9.19849 -6.065347,9.23472 -0.0197,0.02 0.02079,-0.0862 0.08997,-0.23586 z m 20.859111,-12.19214 c -1.157301,-0.12179 -2.22623,-0.50238 -3.023696,-1.07656 -0.387687,-0.27914 -0.909956,-0.83348 -1.150116,-1.22074 -0.368119,-0.59361 -0.600931,-1.26146 -0.697499,-2.00089 -0.06507,-0.49825 -0.02552,-1.68269 0.07251,-2.17139 0.227723,-1.13527 0.698925,-2.03106 1.448562,-2.75382 0.410968,-0.39624 0.768594,-0.64988 1.270764,-0.90127 0.871232,-0.43616 1.87312,-0.65128 3.034682,-0.6516 0.844355,-2.2e-4 1.566106,0.1423 2.301026,0.45442 0.393743,0.16723 0.968821,0.49668 0.959445,0.54965 -0.0029,0.0163 -0.06635,0.26978 -0.141039,0.56331 l -0.135796,0.53369 -0.203675,-0.18278 c -0.459141,-0.41204 -0.970023,-0.68024 -1.634283,-0.85796 -0.313586,-0.0839 -0.414485,-0.0931 -1.036821,-0.0945 -0.80327,-0.002 -1.040896,0.0461 -1.599217,0.3226 -1.083365,0.53642 -1.838017,1.65055 -2.100913,3.10167 -0.08364,0.46166 -0.126497,1.24745 -0.0873,1.60062 0.161755,1.45759 1.201265,3.02557 2.409492,3.63445 0.418487,0.21089 0.676745,0.26238 1.30537,0.26025 0.620262,-0.002 0.918639,-0.0485 1.310005,-0.2038 l 0.213995,-0.0849 0.0094,-1.69617 0.0094,-1.69616 h -1.39736 -1.397359 v -0.59871 -0.59872 h 2.436074 2.436075 l -0.02152,0.15699 c -0.01183,0.0863 -0.03301,1.21389 -0.04707,2.50567 l -0.02555,2.34869 -0.122341,0.0511 c -0.630759,0.26355 -1.66521,0.55299 -2.333386,0.65288 -0.453132,0.0677 -1.636645,0.0987 -2.061918,0.054 z m -19.38211,-4.46677 c -2.203236,-2.21731 -4.03666,-4.07061 -4.074276,-4.11843 l -0.06839,-0.087 0.900705,9.1e-4 0.900705,9e-4 3.338286,3.37777 c 1.836057,1.85777 3.399102,3.44743 3.473433,3.53257 l 0.135147,0.1548 -0.279371,0.58495 c -0.153654,0.32173 -0.288593,0.58496 -0.299863,0.58496 -0.01127,0 -1.823139,-1.81417 -4.026373,-4.03148 z m 34.364614,3.44364 -0.196705,-0.43435 3.625705,-3.60534 3.625701,-3.60534 0.594132,-0.002 0.594135,-0.002 -4.002039,4.02936 c -2.201121,2.21614 -4.011528,4.0349 -4.023132,4.04168 -0.0116,0.007 -0.109612,-0.18313 -0.217797,-0.42202 z m -1.375824,-3.01998 c -0.522134,-1.1461 -0.949333,-2.10549 -0.949333,-2.13199 0,-0.0265 0.551177,-0.59916 1.224839,-1.2726 l 1.224843,-1.22445 h 3.102157 3.102156 l -3.35628,3.35643 c -1.845956,1.84604 -3.365903,3.35643 -3.377667,3.35643 -0.01176,0 -0.448582,-0.93772 -0.970715,-2.08382 z m -31.377843,-1.33744 -3.232367,-3.27345 2.955509,-0.009 2.955507,-0.009 1.23843,1.22249 c 0.681136,0.67238 1.24353,1.24304 1.249763,1.26815 0.0088,0.0354 -1.474586,3.1685 -1.856902,3.92195 l -0.07758,0.15288 z"
       id="path1386" /></g></svg>
